<mxfile host="app.diagrams.net" agent="Mozilla/5.0 (Windows NT 10.0; Win64; x64) AppleWebKit/537.36 (KHTML, like Gecko) Chrome/137.0.0.0 Safari/537.36" version="27.1.4">
  <diagram id="wMg1QiTSwl2f3G2fWmTA" name="Page-1">
    <mxGraphModel dx="595" dy="341" grid="1" gridSize="10" guides="1" tooltips="1" connect="1" arrows="1" fold="1" page="1" pageScale="1" pageWidth="3300" pageHeight="4681" math="0" shadow="0">
      <root>
        <mxCell id="0" />
        <mxCell id="1" parent="0" />
        <mxCell id="R2J4LhnQrjmQkATADMXI-1" value="ProductReader" style="swimlane;fontStyle=1;align=center;verticalAlign=top;childLayout=stackLayout;horizontal=1;startSize=26;horizontalStack=0;resizeParent=1;resizeParentMax=0;resizeLast=0;collapsible=1;marginBottom=0;whiteSpace=wrap;html=1;" vertex="1" parent="1">
          <mxGeometry x="310" y="240" width="240" height="100" as="geometry" />
        </mxCell>
        <mxCell id="R2J4LhnQrjmQkATADMXI-3" value="" style="line;strokeWidth=1;fillColor=none;align=left;verticalAlign=middle;spacingTop=-1;spacingLeft=3;spacingRight=3;rotatable=0;labelPosition=right;points=[];portConstraint=eastwest;strokeColor=inherit;" vertex="1" parent="R2J4LhnQrjmQkATADMXI-1">
          <mxGeometry y="26" width="240" height="8" as="geometry" />
        </mxCell>
        <mxCell id="R2J4LhnQrjmQkATADMXI-4" value="&lt;div&gt;&amp;lt;&amp;lt;static&amp;gt;&amp;gt;&lt;/div&gt;&lt;div&gt;+readFromJson(filepath: str): List[Product]&lt;/div&gt;" style="text;strokeColor=none;fillColor=none;align=left;verticalAlign=top;spacingLeft=4;spacingRight=4;overflow=hidden;rotatable=0;points=[[0,0.5],[1,0.5]];portConstraint=eastwest;whiteSpace=wrap;html=1;" vertex="1" parent="R2J4LhnQrjmQkATADMXI-1">
          <mxGeometry y="34" width="240" height="66" as="geometry" />
        </mxCell>
        <mxCell id="R2J4LhnQrjmQkATADMXI-5" value="AccountReader" style="swimlane;fontStyle=1;align=center;verticalAlign=top;childLayout=stackLayout;horizontal=1;startSize=26;horizontalStack=0;resizeParent=1;resizeParentMax=0;resizeLast=0;collapsible=1;marginBottom=0;whiteSpace=wrap;html=1;" vertex="1" parent="1">
          <mxGeometry x="580" y="240" width="270" height="150" as="geometry" />
        </mxCell>
        <mxCell id="R2J4LhnQrjmQkATADMXI-6" value="&lt;div&gt;-_filename: str&lt;/div&gt;&lt;div&gt;-_catalogue: Catalogue&lt;/div&gt;" style="text;strokeColor=none;fillColor=none;align=left;verticalAlign=top;spacingLeft=4;spacingRight=4;overflow=hidden;rotatable=0;points=[[0,0.5],[1,0.5]];portConstraint=eastwest;whiteSpace=wrap;html=1;" vertex="1" parent="R2J4LhnQrjmQkATADMXI-5">
          <mxGeometry y="26" width="270" height="44" as="geometry" />
        </mxCell>
        <mxCell id="R2J4LhnQrjmQkATADMXI-7" value="" style="line;strokeWidth=1;fillColor=none;align=left;verticalAlign=middle;spacingTop=-1;spacingLeft=3;spacingRight=3;rotatable=0;labelPosition=right;points=[];portConstraint=eastwest;strokeColor=inherit;" vertex="1" parent="R2J4LhnQrjmQkATADMXI-5">
          <mxGeometry y="70" width="270" height="8" as="geometry" />
        </mxCell>
        <mxCell id="R2J4LhnQrjmQkATADMXI-8" value="&lt;div&gt;+__init__(catalogue: Catalogue, filename: str = &quot;data/accounts.json&quot;)&lt;/div&gt;&lt;div&gt;+readAccounts(): List[IAccount]&lt;/div&gt;&lt;div&gt;+appendAccount(account: IAccount): void&lt;/div&gt;" style="text;strokeColor=none;fillColor=none;align=left;verticalAlign=top;spacingLeft=4;spacingRight=4;overflow=hidden;rotatable=0;points=[[0,0.5],[1,0.5]];portConstraint=eastwest;whiteSpace=wrap;html=1;" vertex="1" parent="R2J4LhnQrjmQkATADMXI-5">
          <mxGeometry y="78" width="270" height="72" as="geometry" />
        </mxCell>
        <mxCell id="R2J4LhnQrjmQkATADMXI-9" value="OrderReader" style="swimlane;fontStyle=1;align=center;verticalAlign=top;childLayout=stackLayout;horizontal=1;startSize=26;horizontalStack=0;resizeParent=1;resizeParentMax=0;resizeLast=0;collapsible=1;marginBottom=0;whiteSpace=wrap;html=1;" vertex="1" parent="1">
          <mxGeometry x="330" y="440" width="470" height="130" as="geometry" />
        </mxCell>
        <mxCell id="R2J4LhnQrjmQkATADMXI-11" value="" style="line;strokeWidth=1;fillColor=none;align=left;verticalAlign=middle;spacingTop=-1;spacingLeft=3;spacingRight=3;rotatable=0;labelPosition=right;points=[];portConstraint=eastwest;strokeColor=inherit;" vertex="1" parent="R2J4LhnQrjmQkATADMXI-9">
          <mxGeometry y="26" width="470" height="8" as="geometry" />
        </mxCell>
        <mxCell id="R2J4LhnQrjmQkATADMXI-12" value="&lt;div&gt;&amp;lt;&amp;lt;static&amp;gt;&amp;gt;&lt;/div&gt;&lt;div&gt;+readAllOrders(filename: str = &quot;data/orders.txt&quot;): List[Order]&lt;/div&gt;&lt;div&gt;&lt;span style=&quot;background-color: transparent; color: light-dark(rgb(0, 0, 0), rgb(255, 255, 255));&quot;&gt;+getOrdersByCustomer(username: str, filename: str = &quot;data/orders.txt&quot;): List[Order]&lt;/span&gt;&lt;/div&gt;" style="text;strokeColor=none;fillColor=none;align=left;verticalAlign=top;spacingLeft=4;spacingRight=4;overflow=hidden;rotatable=0;points=[[0,0.5],[1,0.5]];portConstraint=eastwest;whiteSpace=wrap;html=1;" vertex="1" parent="R2J4LhnQrjmQkATADMXI-9">
          <mxGeometry y="34" width="470" height="96" as="geometry" />
        </mxCell>
      </root>
    </mxGraphModel>
  </diagram>
</mxfile>
